<svg width="24" height="24" viewBox="0 0 24 24" fill="none" xmlns="http://www.w3.org/2000/svg">
<path d="M18.5144 8.75H13.7644V7.25H16.2166C15.2721 6.40112 14.0886 5.85169 12.8171 5.68555C11.2792 5.48465 9.72078 5.85731 8.44019 6.73242C7.15967 7.60757 6.24634 8.92385 5.87476 10.4297C5.50317 11.9357 5.69993 13.526 6.42651 14.8965C7.15306 16.2667 8.35845 17.3218 9.81323 17.8594C11.2683 18.3969 12.8712 18.3794 14.3142 17.8105C15.757 17.2417 16.9397 16.161 17.6365 14.7754C18.073 13.9071 18.2994 12.9568 18.3083 12H19.8083C19.7994 13.189 19.5188 14.3703 18.9763 15.4492C18.1139 17.1643 16.65 18.502 14.864 19.2061C13.0779 19.9102 11.0947 19.931 9.2937 19.2656C7.49288 18.6002 6.0006 17.2948 5.10132 15.5986C4.20201 13.9024 3.95877 11.9343 4.4187 10.0703C4.87867 8.20637 6.00938 6.57735 7.59448 5.49414C9.17954 4.41101 11.1079 3.94957 13.0115 4.19824C14.4947 4.39206 15.8811 5.00741 17.0144 5.95703V4H18.5144V8.75Z" fill="white"/>
</svg>
